
<svg width="124px" height="24px" viewBox="0 0 124 24" version="1.1" xmlns="http://www.w3.org/2000/svg" xmlns:xlink="http://www.w3.org/1999/xlink">
    <!-- Generator: Sketch 46.1 (44463) - http://www.bohemiancoding.com/sketch -->
    <desc>Created with Sketch.</desc>
    <defs></defs>
    <g id="Page-1" stroke="none" stroke-width="1" fill="none" fill-rule="evenodd">
        <g id="Final_home01" transform="translate(-22.000000, -21.000000)" fill="#585F64">
            <g id="iPORTAL-logo-BLACK" transform="translate(22.000000, 21.000000)">
                <path d="M34.1997264,19.3365559 C34.1997264,19.3365559 33.8672291,19.4285714 33.249734,19.4285714 C31.9197446,19.4285714 31.1122511,18.6974404 31.1122511,17.0083494 L31.1122511,8.35817778 L33.2259842,8.35817778 L33.2259842,16.7800939 C33.2259842,17.487686 33.4397325,17.8757205 34.1997264,17.8757205 L34.1997264,19.3365559 Z M32.2284922,6.14409905 C31.4209986,6.14409905 30.7797538,5.5734602 30.7797538,4.79810466 C30.7797538,4.02203583 31.4209986,3.42857143 32.2284922,3.42857143 C33.0359857,3.42857143 33.7009804,4.02203583 33.7009804,4.79810466 C33.7009804,5.5734602 33.0359857,6.14409905 32.2284922,6.14409905 L32.2284922,6.14409905 Z" id="Fill-1"></path>
                <path d="M42.2365762,11.9086143 C45.1285664,11.9086143 46.5745616,10.7427959 46.5745616,8.61689181 C46.5745616,6.55956527 45.1548573,5.18801424 42.1577038,5.18801424 L38.8713512,5.18801424 L38.8713512,11.9086143 L42.2365762,11.9086143 Z M36.4797082,19.4285714 L36.4797082,3.42857143 L42.3417395,3.42857143 C46.4956891,3.42857143 49.0196078,5.14301022 49.0196078,8.61689181 C49.0196078,12.0686286 46.364235,13.6459123 42.6309385,13.6459123 L38.8713512,13.6459123 L38.8713512,19.4285714 L36.4797082,19.4285714 L36.4797082,19.4285714 Z" id="Fill-2"></path>
                <path d="M62.6859821,11.4510453 C62.6859821,6.82142544 60.2198552,5.20400818 57.5818701,5.20400818 C54.918453,5.20400818 52.477758,6.82142544 52.477758,11.4510453 C52.477758,15.9900673 54.918453,17.6531347 57.5818701,17.6531347 C60.2452871,17.6531347 62.6859821,15.9900673 62.6859821,11.4510453 Z M50.1595987,11.4510453 C50.1595987,5.81010071 53.636067,3.42857143 57.5818701,3.42857143 C61.5022412,3.42857143 64.9794802,5.81010071 64.9794802,11.4510453 C64.9794802,17.0912876 61.5022412,19.4285714 57.5818701,19.4285714 C53.6607283,19.4285714 50.1595987,17.0912876 50.1595987,11.4510453 L50.1595987,11.4510453 Z" id="Fill-3"></path>
                <path d="M73.5824797,11.2802718 C75.8147066,11.2802718 77.5188798,10.2332836 77.5188798,8.27587083 C77.5188798,6.38673991 76.1987456,5.1804274 73.7992517,5.1804274 L70.5829248,5.1804274 L70.5829248,11.2802718 L73.5824797,11.2802718 Z M82.0793434,19.3368177 C82.0793434,19.3368177 81.4785323,19.4285714 80.7824615,19.4285714 C76.2707529,19.4285714 77.0868359,12.8962754 73.3904601,12.8962754 L70.5829248,12.8962754 L70.5829248,19.3595783 L68.3994528,19.3595783 L68.3994528,3.42857143 L73.8945114,3.42857143 C77.5908871,3.42857143 79.7511067,4.83972946 79.7511067,8.20758899 C79.7511067,10.5519322 78.1909481,11.8720478 76.5347798,12.3044994 C78.6709969,13.4197695 78.9590262,17.8353285 81.4312775,17.8353285 L82.0793434,17.8353285 L82.0793434,19.3368177 L82.0793434,19.3368177 Z" id="Fill-4"></path>
                <polyline id="Fill-5" points="87.9154666 19.4285714 87.9154666 5.18801424 82.0793434 5.18801424 82.0793434 3.42857143 95.7592339 3.42857143 95.7592339 5.18801424 90.0412508 5.18801424 90.0412508 19.4285714 87.9154666 19.4285714"></polyline>
                <path d="M100.447148,13.2801653 L105.891201,13.2801653 L103.157348,6.28596941 L100.447148,13.2801653 Z M106.550439,14.9938898 L99.7634937,14.9938898 L98.0543584,19.4285714 L95.7592339,19.4285714 L102.057855,3.42857143 L104.279731,3.42857143 L110.579115,19.4285714 L108.283991,19.4285714 L106.550439,14.9938898 L106.550439,14.9938898 Z" id="Fill-6"></path>
                <polyline id="Fill-7" points="112.859097 19.4285714 112.859097 3.42857143 115.029952 3.42857143 115.029952 17.6684143 123.119015 17.6684143 123.119015 19.4285714 112.859097 19.4285714"></polyline>
                <path d="M0,12.0003832 C0,13.140868 0.162840238,14.2437965 0.46099842,15.2907738 C0.478582107,15.3605212 0.496165795,15.4302686 0.516043007,15.5007824 C0.520630056,15.5145786 0.525981613,15.525309 0.532862187,15.5398716 C2.04200129,20.4344521 6.59846992,24 11.9706687,24 C14.4545558,24 16.7648994,23.236611 18.6807569,21.9328713 C18.6991051,21.922141 18.7182178,21.9114106 18.736566,21.8999138 C18.8504777,21.8217354 18.9598023,21.7412576 19.067598,21.6554147 C21.2693815,20.0243988 22.8962548,17.6560534 23.5812542,14.9152109 C23.6187151,14.7887459 23.6531179,14.6599815 23.6798757,14.5312171 C23.6867563,14.5005589 23.6898143,14.4691342 23.6905788,14.4392425 C23.8541836,13.6513269 23.9398085,12.8342861 23.9398085,12.0003832 C23.9398085,10.3800977 23.6233021,8.80886533 22.9994634,7.32960751 C22.8802002,7.04525277 22.5522262,6.91265609 22.2693582,7.03298949 C21.9864901,7.15255645 21.8534657,7.48059911 21.9734935,7.76342094 C22.5392295,9.10471689 22.8266846,10.5303229 22.8266846,12.0003832 C22.8266846,12.9017341 22.7143019,13.7754926 22.5078847,14.6139942 C22.34428,15.1420816 22.0552959,15.6303133 21.6546936,16.0733242 C21.6646322,15.8847763 21.6715128,15.6931626 21.6715128,15.4977166 C21.6760998,13.3570083 21.0858995,11.0959665 19.9895948,8.96905439 C20.7938574,8.27771213 21.3037844,7.42388145 21.4811502,6.46811229 C21.5377238,6.16536263 21.3374227,5.87410979 21.035442,5.81815859 C20.7326968,5.76144094 20.4414191,5.96301855 20.3856101,6.26576821 C20.2694048,6.89809344 19.9429598,7.47676684 19.4307394,7.96959729 C19.2709572,7.70593683 19.1058234,7.44457574 18.9299865,7.18628046 C17.9529451,5.74994411 16.7916572,4.50752084 15.5218091,3.51649475 C17.1983755,3.6276307 18.7487981,4.03461821 19.9972399,4.73439147 C20.1937185,4.84629387 20.4536513,4.8424616 20.6363687,4.68917063 C20.8733663,4.49219174 20.9047111,4.13962252 20.707468,3.90355443 C18.9146964,1.38651678 15.8107932,0 11.9706687,0 C5.36990531,0 0,5.38281225 0,12.0003832 M12.2497142,1.63638106 C11.7459034,1.44170153 11.2482085,1.29377575 10.7573943,1.18570562 C11.151116,1.14125124 11.5494248,1.11749114 11.9546141,1.11672468 C12.1434476,1.11902405 12.3766226,1.34666113 12.6205007,1.78890557 C12.4974149,1.73602018 12.3728,1.68390126 12.2497142,1.63638106 M13.4561081,1.19796889 C13.9079324,1.24778846 14.3895726,1.32596685 14.8849738,1.44170153 C14.573819,1.60878868 14.2527256,1.8187973 13.9255161,2.06866158 C13.7817886,1.739086 13.6235354,1.44783317 13.4561081,1.19796889 M15.3314466,2.39287197 C15.7137007,2.14454061 16.0653744,1.97515409 16.3597101,1.90464025 C16.9170365,2.12921151 17.471305,2.41509916 17.9957575,2.77763229 C17.1532696,2.56685722 16.258795,2.4380928 15.3314466,2.39287197 M6.29801821,3.86446524 C6.42263304,3.28425893 6.76895524,2.76690193 7.30716898,2.33845368 C8.60606834,1.95062753 10.117501,2.04336857 11.7076779,2.62664069 C11.0379688,2.74390828 10.3697887,2.8979657 9.71001812,3.09801041 C8.48221802,3.46667518 7.32322365,3.97253537 6.26208633,4.58646569 C6.23762207,4.3419666 6.24908969,4.10053332 6.29801821,3.86446524 M5.25370007,3.45747772 C5.23917441,3.51496184 5.22235523,3.57167949 5.2101231,3.62993006 C5.0977404,4.15725098 5.11150155,4.69606873 5.24299695,5.23182065 C4.04501267,6.05959186 3.00298805,7.04065404 2.1742612,8.14051672 C1.921209,8.47545748 1.6956791,8.81729633 1.4900264,9.16296746 C2.10621998,6.87663271 3.4486963,4.88768243 5.25370007,3.45747772 M7.64890413,7.01459458 C7.18790571,6.58231405 6.83852548,6.13163862 6.60229246,5.67866381 C7.6458461,5.05017086 8.79948891,4.53741258 10.030347,4.16644844 C10.7619814,3.9464759 11.5020252,3.78245457 12.2397756,3.66901926 C11.1740512,4.86698815 10.1106204,6.38763453 9.13434348,8.10679271 C8.57778154,7.78334877 8.0770287,7.41774982 7.64890413,7.01459458 M12.4056739,9.34078498 C11.5998823,9.1690991 10.8346096,8.92076773 10.1289686,8.60958707 C11.1679352,6.78772395 12.3047588,5.20422828 13.4255278,4.02542075 C13.7756725,5.4073388 14.0692436,7.26445885 14.193094,9.56688915 C13.6028937,9.54312905 13.0027548,9.46878293 12.4056739,9.34078498 M14.6135735,4.22699837 C15.8788345,5.17203717 17.0401223,6.38993389 18.0102832,7.81553987 C18.1937652,8.08686488 18.368073,8.36048925 18.5324423,8.63871236 C17.6433193,9.15300354 16.5187278,9.46188484 15.3046888,9.54849424 C15.2022447,7.62239326 14.9751858,5.76910548 14.6135735,4.22699837 M3.47163155,14.5994315 C2.52593496,13.7233737 1.87610302,12.7959633 1.54430648,11.8739182 C1.80653278,10.84227 2.31569521,9.80602306 3.06261968,8.8126976 C3.77208326,7.87149107 4.65432567,7.02379204 5.66729898,6.29489349 C5.95781208,6.82374733 6.36758845,7.34033788 6.887454,7.82933606 C7.38209078,8.29457414 7.96005895,8.71612429 8.59918777,9.08478907 C8.42258638,9.41896337 8.24980754,9.75926931 8.08161575,10.1057069 C7.0938712,12.1352793 6.2873151,14.312011 5.81484906,16.2879315 C4.93566467,15.7905023 4.14592774,15.2248587 3.47163155,14.5994315 M10.6924111,18.1021301 C9.31323839,17.8055121 8.01051649,17.3670999 6.8308804,16.8114202 C7.21695702,15.0639032 7.93941723,12.9461885 9.08312143,10.5947051 C9.2490197,10.2543991 9.41797601,9.92022483 9.59151936,9.59218216 C10.3911949,9.95164947 11.2604407,10.2367707 12.1732634,10.4322167 C12.8666723,10.5809089 13.5593167,10.6629196 14.2381999,10.6859132 C14.2511966,11.1043975 14.2565481,11.5359116 14.2565481,11.9812219 C14.2565481,14.6093955 14.0463084,16.7914924 13.7450922,18.4953214 C12.7489381,18.4531664 11.7229681,18.3221026 10.6924111,18.1021301 M15.369672,11.9812219 C15.369672,11.5451091 15.3643205,11.1082298 15.3505593,10.6705841 C16.7358481,10.579376 18.0179283,10.2183758 19.0683625,9.61287644 C20.0408169,11.5405103 20.5629759,13.5746814 20.5583889,15.4954172 C20.5568599,16.0526299 20.5102249,16.5807173 20.4215419,17.0804458 C19.9215536,17.3877942 19.345879,17.653754 18.697576,17.8721937 C17.5485203,18.2600198 16.2526789,18.4715613 14.8803868,18.5083512 C15.2106543,16.5232332 15.369672,14.21927 15.369672,11.9812219 M1.52978083,14.9788267 C1.43498181,14.6155271 1.37611469,14.2453294 1.35088592,13.870533 C1.72243688,14.4009197 2.17655473,14.9190432 2.71553298,15.4195382 C3.53049868,16.1737298 4.49683699,16.8489765 5.57402899,17.4284163 C5.35461514,18.6616421 5.29268998,19.7798997 5.43183047,20.6827835 C3.57484015,19.2725066 2.18419981,17.2804905 1.52978083,14.9788267 M7.2712371,21.8117715 C7.23759874,21.7841791 7.20319587,21.7588861 7.16267694,21.7397247 C6.54495435,21.4377415 6.29496018,20.0565899 6.61834713,17.941941 C7.80409928,18.477693 9.0991761,18.9015425 10.4584716,19.1935618 C11.4905576,19.4135343 12.5165276,19.5499633 13.5203268,19.6028487 C13.028748,21.7489222 12.3972643,22.8740779 11.9790783,22.8740779 C11.9523206,22.8740779 11.9270918,22.8786766 11.9010985,22.8817424 C10.2444093,22.871012 8.67410957,22.4893175 7.2712371,21.8117715 M14.668618,19.6258423 C16.2419758,19.6066809 17.7320022,19.3752116 19.0530723,18.9314342 C19.3856334,18.8179989 19.7013752,18.6945997 20.0025915,18.5589372 C19.6356275,19.4595216 19.0951203,20.2091144 18.3933018,20.7670935 C17.0057195,21.7918436 15.3673785,22.4946827 13.5891325,22.7637084 C14.0340763,21.9918884 14.3941596,20.904289 14.668618,19.6258423" id="Fill-8"></path>
            </g>
        </g>
    </g>
</svg>